<svg width="32" height="47" viewBox="0 0 32 47" fill="none" xmlns="http://www.w3.org/2000/svg">
<path d="M0.112 28.916H4.732V33.14H0.112V36.836H4.732V47H9.484V36.836H20.572V33.14H9.484V29.048C10.276 29.246 12.124 29.312 14.896 29.312C17.008 29.312 18.988 29.048 20.902 28.52C22.75 27.992 24.532 27.134 26.182 26.012C27.766 24.89 29.086 23.306 30.076 21.26C31 19.28 31.528 16.904 31.528 14.264C31.528 11.624 31.066 9.31397 30.142 7.39997C29.218 5.55197 28.03 4.09997 26.446 3.10997C24.862 2.11997 23.146 1.39397 21.364 0.931973C19.582 0.53597 17.668 0.271973 15.556 0.271973C11.002 0.271973 7.372 0.601973 4.732 1.26197V25.22H0.112V28.916ZM15.556 4.36397C22.816 4.36397 26.512 7.66397 26.512 14.264C26.512 16.376 26.116 18.224 25.456 19.742C24.73 21.26 23.806 22.382 22.618 23.108C21.43 23.9 20.176 24.428 18.922 24.758C17.668 25.088 16.348 25.22 14.896 25.22C12.058 25.22 10.276 25.154 9.484 24.89V4.75997C10.474 4.49597 12.52 4.36397 15.556 4.36397Z" fill="#fea900"/>
</svg>
