<?xml version="1.0" standalone="no"?>
<!DOCTYPE svg PUBLIC "-//W3C//DTD SVG 20010904//EN"
 "http://www.w3.org/TR/2001/REC-SVG-20010904/DTD/svg10.dtd">
<svg version="1.0" xmlns="http://www.w3.org/2000/svg"
 width="304.000000pt" height="304.000000pt" viewBox="0 0 304.000000 304.000000"
 preserveAspectRatio="xMidYMid meet">
<metadata>
Created by potrace 1.11, written by Peter Selinger 2001-2013
</metadata>
<g transform="translate(0.000000,304.000000) scale(0.100000,-0.100000)"
fill="#000000" stroke="none">
<path d="M2284 2981 c-43 -26 -55 -65 -44 -143 21 -140 7 -345 -24 -377 -12
-12 -21 -11 -58 8 -23 11 -68 41 -98 66 -167 139 -211 171 -270 199 -165 77
-298 23 -346 -142 -28 -94 -16 -347 22 -474 5 -17 -12 -18 -268 -18 -150 0
-298 -4 -328 -9 -239 -40 -449 -239 -625 -593 -170 -343 -267 -783 -236 -1072
22 -200 73 -307 172 -359 49 -26 61 -29 136 -25 156 8 258 82 482 349 152 181
219 239 346 300 127 62 218 81 375 83 155 1 234 -17 378 -84 128 -60 199 -117
422 -335 246 -240 305 -283 420 -305 75 -14 137 5 191 59 136 136 141 469 14
911 -141 489 -405 904 -654 1028 l-75 37 -265 5 -264 5 -19 105 c-22 121 -29
333 -12 350 15 15 71 -14 141 -72 202 -169 242 -196 332 -222 96 -28 160 -15
226 45 85 79 123 228 111 438 -9 152 -19 198 -48 228 -34 34 -93 40 -134 14z
m-1221 -1151 c143 -44 249 -166 277 -317 30 -169 -65 -350 -225 -429 -55 -27
-69 -29 -170 -29 -98 0 -116 3 -167 27 -162 75 -261 262 -230 430 16 84 56
163 113 220 107 107 256 143 402 98z m1197 4 c84 -50 77 -180 -14 -227 -102
-53 -224 70 -171 173 33 63 124 90 185 54z m-219 -187 c120 -81 21 -270 -117
-225 -51 17 -84 66 -84 125 0 55 12 79 53 103 44 27 106 26 148 -3z m379 -63
c57 -34 75 -104 44 -170 -20 -43 -90 -79 -134 -69 -68 15 -119 91 -106 159 6
32 46 78 76 89 31 11 93 6 120 -9z m-232 -194 c69 -43 78 -136 18 -196 -83
-83 -216 -28 -216 89 0 103 109 161 198 107z"/>
<path d="M875 1648 c-108 -39 -163 -149 -131 -260 25 -89 104 -148 196 -148
124 0 211 85 212 206 1 114 -83 204 -195 210 -29 2 -65 -1 -82 -8z"/>
</g>
</svg>
